<?xml version="1.0" standalone="no"?>
<!DOCTYPE svg PUBLIC "-//W3C//DTD SVG 20010904//EN"
 "http://www.w3.org/TR/2001/REC-SVG-20010904/DTD/svg10.dtd">
<svg version="1.0" xmlns="http://www.w3.org/2000/svg"
 width="512.000000pt" height="512.000000pt" viewBox="0 0 512.000000 512.000000"
 preserveAspectRatio="xMidYMid meet">
<metadata>
Created by potrace 1.14, written by Peter Selinger 2001-2017
</metadata>
<g transform="translate(0.000000,512.000000) scale(0.100000,-0.100000)"
fill="#000000" stroke="none">
<path d="M2572 4509 c-193 -515 -479 -1360 -489 -1439 -5 -47 -8 -50 -52 -68
-48 -21 -386 -128 -646 -205 -82 -25 -294 -88 -469 -141 -175 -53 -339 -101
-363 -107 -24 -7 -45 -15 -48 -19 -2 -4 62 -26 144 -49 82 -23 225 -66 317
-95 93 -30 232 -73 309 -96 148 -44 654 -212 718 -239 38 -16 38 -17 96 -191
91 -273 297 -860 356 -1015 100 -262 135 -338 151 -323 2 3 42 110 88 239 47
129 138 380 204 559 65 179 147 410 181 513 37 111 71 196 83 207 45 41 695
250 1328 425 113 32 207 59 209 61 9 8 -12 16 -210 73 -442 127 -836 246
-1094 328 l-270 86 -109 326 c-59 179 -160 468 -223 641 -63 173 -131 365
-150 425 -39 124 -48 139 -61 104z m27 -1214 c9 -56 96 -331 146 -462 3 -10
10 -10 29 -1 29 13 56 -2 56 -32 0 -10 13 -26 29 -37 16 -10 55 -37 88 -60 32
-22 86 -52 118 -66 l60 -25 -50 -7 c-74 -9 -224 -46 -231 -56 -3 -5 14 -21 36
-36 23 -16 57 -41 76 -57 l35 -29 82 21 c225 59 442 90 505 73 24 -7 23 -8
-24 -28 -27 -11 -89 -33 -139 -48 -49 -15 -200 -63 -334 -106 -135 -44 -250
-78 -257 -75 -8 3 -11 0 -8 -8 3 -7 0 -25 -6 -40 -8 -23 -15 -27 -35 -24 -20
4 -25 1 -25 -16 0 -12 -24 -91 -53 -176 -29 -85 -59 -182 -66 -215 -7 -33 -19
-82 -26 -110 -7 -27 -13 -59 -12 -70 2 -43 -3 -88 -9 -82 -3 3 -17 72 -30 152
-16 97 -40 195 -73 293 -27 81 -52 164 -56 185 -5 26 -12 37 -25 37 -19 0 -29
25 -31 75 -1 18 -3 23 -6 12 -3 -12 -10 -16 -21 -12 -8 3 -34 10 -58 15 -23 5
-163 46 -311 91 -147 45 -295 90 -328 99 -58 17 -59 18 -30 26 72 21 205 9
367 -34 175 -47 178 -47 178 -28 0 7 38 38 85 67 46 29 81 56 77 60 -4 3 -50
17 -102 29 -52 12 -99 26 -103 30 -5 4 11 22 34 41 24 19 63 52 88 75 59 53
129 97 146 91 13 -6 35 32 35 61 0 10 22 78 48 152 26 74 61 179 77 233 15 53
31 97 35 97 3 0 12 -34 19 -75z"/>
<path d="M3677 3555 c-74 -69 -79 -77 -91 -134 -12 -59 -12 -60 6 -44 14 13
172 254 165 253 -1 -1 -37 -34 -80 -75z"/>
<path d="M1382 3600 c9 -14 35 -54 57 -90 46 -76 96 -136 86 -105 -3 11 -9 41
-12 68 -5 41 -11 50 -41 69 -20 12 -52 36 -71 53 -32 27 -34 28 -19 5z"/>
<path d="M1640 3307 c0 -25 26 -51 45 -44 14 6 15 10 4 23 -20 25 -49 37 -49
21z"/>
<path d="M3456 3298 c-22 -30 -3 -48 24 -23 11 10 20 24 20 32 0 21 -27 15
-44 -9z"/>
<path d="M3509 1763 c23 -34 39 -48 47 -41 2 2 -13 20 -33 39 l-36 34 22 -32z"/>
<path d="M1657 1773 c-13 -13 -7 -32 8 -27 8 4 15 12 15 20 0 15 -12 19 -23 7z"/>
<path d="M3600 1655 c-11 -14 -5 -24 41 -68 30 -29 79 -72 109 -97 l55 -45
-48 67 c-26 36 -52 79 -58 95 -22 59 -71 82 -99 48z"/>
<path d="M1510 1643 c-14 -7 -36 -31 -49 -55 -13 -24 -40 -65 -59 -93 l-36
-50 63 55 c35 30 74 64 88 75 18 15 24 28 21 50 -3 29 -4 30 -28 18z"/>
</g>
</svg>
